<?xml version="1.0" encoding="UTF-8" standalone="no"?>
<!-- Created with Inkscape (http://www.inkscape.org/) -->

<svg
   xmlns:dc="http://purl.org/dc/elements/1.1/"
   xmlns:cc="http://creativecommons.org/ns#"
   xmlns:rdf="http://www.w3.org/1999/02/22-rdf-syntax-ns#"
   xmlns:svg="http://www.w3.org/2000/svg"
   xmlns="http://www.w3.org/2000/svg"
   xmlns:sodipodi="http://sodipodi.sourceforge.net/DTD/sodipodi-0.dtd"
   xmlns:inkscape="http://www.inkscape.org/namespaces/inkscape"
   width="180"
   height="180"
   viewBox="0 0 180 180.00001"
   id="svg2"
   version="1.1"
   inkscape:version="0.91 r13725"
   sodipodi:docname="girlsjs.svg"
   inkscape:export-filename="/home/arim/Pulpit/girlsjs.png"
   inkscape:export-xdpi="300"
   inkscape:export-ydpi="300">
  <defs
     id="defs4" />
  <sodipodi:namedview
     id="base"
     pagecolor="#ffffff"
     bordercolor="#666666"
     borderopacity="1.0"
     inkscape:pageopacity="0.0"
     inkscape:pageshadow="2"
     inkscape:zoom="4.5624753"
     inkscape:cx="181.61139"
     inkscape:cy="81.540633"
     inkscape:document-units="px"
     inkscape:current-layer="g4271"
     showgrid="false"
     units="px"
     inkscape:window-width="1865"
     inkscape:window-height="1056"
     inkscape:window-x="55"
     inkscape:window-y="24"
     inkscape:window-maximized="1" />
  <metadata
     id="metadata7">
    <rdf:RDF>
      <cc:Work
         rdf:about="">
        <dc:format>image/svg+xml</dc:format>
        <dc:type
           rdf:resource="http://purl.org/dc/dcmitype/StillImage" />
        <dc:title></dc:title>
      </cc:Work>
    </rdf:RDF>
  </metadata>
  <g
     inkscape:groupmode="layer"
     id="layer2"
     inkscape:label="Layer 2"
     style="display:inline"
     transform="translate(0,-119.99995)">
    <g
       id="g4271"
       transform="matrix(0.42745532,0,0,0.42745532,25.503263,121.87898)">
      <g
         transform="matrix(1.1473781,0,0,1.1473781,-20.46469,-25.134866)"
         id="g4138">
        <path
           style="fill:#fcd050;fill-opacity:1;fill-rule:nonzero;stroke:none;stroke-width:1.23809528;stroke-linejoin:round;stroke-miterlimit:4;stroke-dasharray:none;stroke-opacity:1"
           d="m 183.21484,26.333988 c -37.60756,-2.51e-4 -68.09487,30.486191 -68.0957,68.09375 0.005,17.817032 6.99309,34.922402 19.46484,47.646482 -0.0861,0.28295 -0.1733,0.56626 -0.23437,0.84766 0,0 -18.30082,-6.90664 -41.292969,-3.7461 -26.480948,3.64012 -36.614155,20.91875 -36.614155,20.91875 0,0 -3.687171,2.79255 -12.375189,-7.57734 -6.989452,-8.34251 -18.307531,-14.6461 -18.307531,-14.6461 0,0 -0.168391,10.29348 -4.041016,27.27344 -4.924494,21.592 -3.031618,38.89188 3.029297,58.58985 6.060916,19.69798 34.804797,56.48193 68.023437,56.35937 14.785786,-0.0546 73.306136,0.24358 101.080076,-0.29687 36.70776,-0.7143 67.36007,-35.72743 71.75782,-78.54688 3.99476,-38.8956 -12.35647,-50.48314 -19.82756,-59.2408 -5.391,-6.31937 -6.85408,-10.27708 -2.66362,-15.80112 6.06347,-7.99311 8.18784,-18.12593 8.19039,-31.780342 -8.3e-4,-37.606798 -30.48695,-68.092924 -68.09375,-68.09375 z"
           id="path4169"
           inkscape:connector-curvature="0"
           sodipodi:nodetypes="ccccscscssssssscc" />
        <circle
           style="fill:#000000;fill-opacity:1;fill-rule:nonzero;stroke:#000000;stroke-width:1;stroke-linejoin:round;stroke-miterlimit:4;stroke-dasharray:none;stroke-opacity:1"
           id="path4187"
           cx="192.5"
           cy="86.071426"
           r="7.8571429" />
        <path
           style="fill:#f6921e;fill-opacity:1;fill-rule:nonzero;stroke:none;stroke-width:1;stroke-linejoin:round;stroke-miterlimit:4;stroke-dasharray:none;stroke-opacity:1"
           d="M 63.945312,182.14258 A 66.071426,66.071426 0 0 0 63.927734,182.5 66.071426,66.071426 0 0 0 130,248.57227 66.071426,66.071426 0 0 0 196.07227,182.5 a 66.071426,66.071426 0 0 0 -0.0137,-0.35742 l -132.113278,0 z"
           id="path4189"
           inkscape:connector-curvature="0" />
        <path
           style="fill:#f6921e;fill-opacity:1;fill-rule:evenodd;stroke:none;stroke-width:1px;stroke-linecap:butt;stroke-linejoin:miter;stroke-opacity:1"
           d="m 259.20278,88.030458 c -5.65558,-0.06307 -8.6234,-2.254838 -17.37002,-2.04197 -8.74662,0.212868 -15.92721,9.224438 -15.76133,16.511512 0.20578,9.03979 5.67633,18.91306 16.50471,18.86358 18.40103,-0.0841 30.01512,7.69267 33.81282,-0.21293 3.71753,-7.73871 -4.37981,-8.88152 -4.4807,-14.5562 -0.0882,-4.9608 4.52031,-5.16588 6.66317,-9.09445 2.14286,-3.928572 -0.45225,-10.083139 -2.85714,-11.071429 -3.88896,-1.598169 -10.85594,1.664954 -16.51151,1.601887 z"
           id="path4194"
           inkscape:connector-curvature="0"
           sodipodi:nodetypes="zzssssssz" />
      </g>
      <g
         transform="translate(33.47636,-48.354742)"
         style="font-style:normal;font-weight:normal;font-size:112.5px;line-height:125%;font-family:sans-serif;letter-spacing:0px;word-spacing:0px;fill:#000000;fill-opacity:1;stroke:none;stroke-width:1px;stroke-linecap:butt;stroke-linejoin:miter;stroke-opacity:1"
         id="flowRoot4196">
        <path
           d="m -27.380371,409.81791 0,-1.0437 q 0,-13.12867 5.657959,-20.92896 5.657959,-7.80029 15.6005858,-7.80029 9.9975586,0 15.3259278,7.96509 l 1.2084964,-6.97632 7.745361,0 0,53.77807 q 0,10.32715 -5.987549,15.82032 -5.932617,5.49316 -17.248535,5.49316 -3.9001465,0 -8.349609,-1.09863 -4.449463,-1.0437 -7.855225,-2.85645 l 2.471924,-7.58057 q 2.636719,1.48316 6.317139,2.417 3.7353511,0.93383 7.3059077,0.93383 7.0861817,0 10.3271485,-3.18603 3.2958984,-3.18604 3.2958984,-9.94263 l 0,-6.04248 q -5.3283691,6.81153 -14.9414063,6.81153 -9.5581053,0 -15.2160643,-7.03125 -5.657959,-7.08619 -5.657959,-18.73169 z m 9.7229,-1.0437 0,1.0437 q 0,8.29467 3.460694,13.07373 3.515625,4.77905 10.3271481,4.77905 8.3496094,0 12.3596191,-7.69043 l 0,-24.60938 q -4.1748047,-7.41577 -12.2497558,-7.41577 -6.8115234,0 -10.3820804,5.65796 -3.515625,5.60303 -3.515625,15.16114 z"
           style="font-style:normal;font-variant:normal;font-weight:normal;font-stretch:normal;font-size:112.5px;font-family:Yantramanav;-inkscape-font-specification:Yantramanav"
           id="path4198" />
        <path
           d="m 42.822266,378.61673 0,53.50342 -9.722901,0 0,-53.50342 9.722901,0 z m 0,-23.6206 0,9.94263 -9.722901,0 0,-9.94263 9.722901,0 z"
           style="font-style:normal;font-variant:normal;font-weight:normal;font-stretch:normal;font-size:112.5px;font-family:Yantramanav;-inkscape-font-specification:Yantramanav"
           id="path4200" />
        <path
           d="m 67.541504,432.17508 -9.7229,0 0,-53.50341 8.679199,0 0.933838,7.80029 q 4.888916,-8.844 13.293457,-8.844 1.977539,0 3.735351,0.54932 l -1.318359,9.11865 -4.998779,-0.32959 q -7.525635,0 -10.601807,6.97632 l 0,38.23242 z"
           style="font-style:normal;font-variant:normal;font-weight:normal;font-stretch:normal;font-size:112.5px;font-family:Yantramanav;-inkscape-font-specification:Yantramanav"
           id="path4202" />
        <path
           d="m 103.02734,354.99613 0,77.12402 -9.722897,0 0,-77.12402 9.722897,0 z"
           style="font-style:normal;font-variant:normal;font-weight:normal;font-stretch:normal;font-size:112.5px;font-family:Yantramanav;-inkscape-font-specification:Yantramanav"
           id="path4204" />
        <path
           d="m 137.90894,425.52836 q 5.16357,0 8.12988,-2.03248 2.96631,-2.0874 2.96631,-5.49316 0,-3.40576 -2.52686,-5.3833 -2.52685,-2.03247 -9.17358,-3.57056 -10.10742,-2.19726 -14.88648,-5.82275 -4.72412,-3.68042 -4.72412,-10.10742 0,-6.427 5.60303,-10.9314 5.60303,-4.55933 14.61182,-4.55933 9.00878,0 14.55688,4.77906 5.60303,4.72412 5.32837,11.75537 l -0.10986,0.27466 -9.28345,0 q 0,-3.68042 -3.02124,-6.37207 -2.96631,-2.69165 -7.85523,-2.69165 -4.83398,0 -7.4707,2.19726 -2.63672,2.14234 -2.63672,5.49317 0,3.35083 2.30713,5.10864 2.30713,1.75781 9.06372,3.18603 10.32715,2.2522 15.16113,6.04248 4.83399,3.73536 4.83399,9.94263 0,7.14111 -5.76782,11.53565 -5.71289,4.39453 -15.38086,4.39453 -9.66797,0 -15.65552,-5.05371 -5.93262,-5.05371 -5.65796,-12.24976 l 0.10986,-0.27466 9.28345,0 q 0.27466,4.94385 3.68042,7.47071 3.46069,2.47192 8.62427,2.47192 l -0.10986,-0.10986 z"
           style="font-style:normal;font-variant:normal;font-weight:normal;font-stretch:normal;font-size:112.5px;font-family:Yantramanav;-inkscape-font-specification:Yantramanav"
           id="path4206" />
        <path
           d="m 181.57959,422.12259 0,9.99756 -9.7229,0 0,-9.99756 9.7229,0 z"
           style="fill:#ffcf08;fill-opacity:1"
           id="path4208" />
        <path
           d="m 199.4873,381.03373 9.83277,0 0,57.89795 q 0,8.23974 -4.22974,12.6892 -4.1748,4.5044 -11.8103,4.5044 -2.74658,0 -5.5481,-0.87891 l 0.65918,-7.69043 q 1.48316,0.60425 4.06494,0.60425 7.03125,0 7.03125,-9.22851 l 0,-57.89795 z m 9.44825,-23.62061 0,9.7229 -9.77784,0 0,-9.7229 9.77784,0 z"
           style="font-style:normal;font-variant:normal;font-weight:normal;font-stretch:normal;font-size:112.5px;font-family:Yantramanav;-inkscape-font-specification:Yantramanav"
           id="path4210" />
        <path
           d="m 244.03687,425.52836 q 5.16357,0 8.12988,-2.03248 2.96631,-2.0874 2.96631,-5.49316 0,-3.40576 -2.52686,-5.3833 -2.52685,-2.03247 -9.17358,-3.57056 -10.10742,-2.19726 -14.88648,-5.82275 -4.72412,-3.68042 -4.72412,-10.10742 0,-6.427 5.60303,-10.9314 5.60303,-4.55933 14.61182,-4.55933 9.00878,0 14.55688,4.77906 5.60303,4.72412 5.32837,11.75537 l -0.10986,0.27466 -9.28345,0 q 0,-3.68042 -3.02124,-6.37207 -2.96631,-2.69165 -7.85523,-2.69165 -4.83398,0 -7.4707,2.19726 -2.63672,2.14234 -2.63672,5.49317 0,3.35083 2.30713,5.10864 2.30713,1.75781 9.06372,3.18603 10.32715,2.2522 15.16113,6.04248 4.83399,3.73536 4.83399,9.94263 0,7.14111 -5.76782,11.53565 -5.71289,4.39453 -15.38086,4.39453 -9.66797,0 -15.65552,-5.05371 -5.93262,-5.05371 -5.65796,-12.24976 l 0.10986,-0.27466 9.28345,0 q 0.27466,4.94385 3.68042,7.47071 3.46069,2.47192 8.62427,2.47192 l -0.10986,-0.10986 z"
           style="font-style:normal;font-variant:normal;font-weight:normal;font-stretch:normal;font-size:112.5px;font-family:Yantramanav;-inkscape-font-specification:Yantramanav"
           id="path4212" />
      </g>
    </g>
  </g>
</svg>
